<svg xmlns="http://www.w3.org/2000/svg" width="56" height="56">
    <defs>
        <linearGradient id="a" x1="70.711%" x2="0%" y1="70.711%" y2="0%">
            <stop offset="0%" stop-color="#1E82D2"/>
            <stop offset="100%" stop-color="#93CFFF"/>
        </linearGradient>
    </defs>
    <path fill="#FFBA00" fill-rule="evenodd" d="M51.069 56H4.931A4.931 4.931 0 0 1 0 51.069V4.931A4.931 4.931 0 0 1 4.931 0h46.138A4.931 4.931 0 0 1 56 4.931v46.138A4.931 4.931 0 0 1 51.069 56zM23.368 18.886a6.705 6.705 0 0 0-7.363-1.318 6.678 6.678 0 0 0-3.991 6.314c.06 3.63 3.053 6.527 6.692 6.478a6.696 6.696 0 0 0 6.205-4.17 6.67 6.67 0 0 0-1.543-7.304zm6.546 20.266c-.077-4.583-3.857-8.239-8.45-8.175H16.45c-4.593-.064-8.373 3.592-8.45 8.175v.491C8 42 11.73 42 16.45 42h5.014c4.535 0 8.45 0 8.45-2.357v-.491zM49 19.13H32.807v3.603H49V19.13zm0 8.568H32.807v3.604H49v-3.604zm0 8.568H32.807v3.604H49v-3.604z"/>
    <path fill="url(#a)" d="M51.069 56H4.931A4.931 4.931 0 0 1 0 51.069V4.931A4.931 4.931 0 0 1 4.931 0h46.138A4.931 4.931 0 0 1 56 4.931v46.138A4.931 4.931 0 0 1 51.069 56zM23.368 18.886a6.705 6.705 0 0 0-7.363-1.318 6.678 6.678 0 0 0-3.991 6.314c.06 3.63 3.053 6.527 6.692 6.478a6.696 6.696 0 0 0 6.205-4.17 6.67 6.67 0 0 0-1.543-7.304zm6.546 20.266c-.077-4.583-3.857-8.239-8.45-8.175H16.45c-4.593-.064-8.373 3.592-8.45 8.175v.491C8 42 11.73 42 16.45 42h5.014c4.535 0 8.45 0 8.45-2.357v-.491zM49 19.13H32.807v3.603H49V19.13zm0 8.568H32.807v3.604H49v-3.604zm0 8.568H32.807v3.604H49v-3.604z"/>
</svg>
