<svg xmlns="http://www.w3.org/2000/svg" width="56" height="56">
    <defs>
        <linearGradient id="a" x1="70.711%" x2="0%" y1="70.711%" y2="0%">
            <stop offset="0%" stop-color="#1E82D2"/>
            <stop offset="100%" stop-color="#93CFFF"/>
        </linearGradient>
    </defs>
    <path fill="#FFBA00" fill-rule="evenodd" d="M51.069 56H4.931A4.93 4.93 0 0 1 0 51.069V4.931A4.93 4.93 0 0 1 4.931 0h46.138A4.931 4.931 0 0 1 56 4.931v46.138A4.931 4.931 0 0 1 51.069 56zM32.362 43.325c0 1.084.88 2.057 1.963 2.057h.274c1.084 0 1.871-.973 1.871-2.057v-1.174c-.001-.101.058-.091-.503-.091H33.14c-.75 0-.778-.029-.778.091v1.174zm-20.721 0c0 1.084.88 2.057 1.963 2.057h.275c1.082 0 1.87-.973 1.87-2.057v-1.248c0-.104.059-.094-.501-.094h-2.83c-.75 0-.777-.027-.777.094v1.248zM8.994 32.253v1.859h2.811a2.7 2.7 0 0 1 2.557-1.828 2.705 2.705 0 0 1 0 5.407 2.704 2.704 0 0 1-2.702-2.705l.001-.034h-.176v-.002H8.994v6.076c.503-.016 26.381.041 30.215 0l.065-6.076h-2.487l-.013.002a2.7 2.7 0 0 1-2.689 2.965 2.7 2.7 0 0 1-2.702-2.702 2.701 2.701 0 0 1 5.168-1.103h2.731l.02-1.859a2.739 2.739 0 0 0-2.731-2.741H11.725a2.737 2.737 0 0 0-2.731 2.741zm12.142-3.84v-1.781c0-1.084-.788-2.055-1.872-2.055h-.274c-1.084 0-1.963.971-1.963 2.055v1.781c0 .122.026.091.777.091h2.829c.56 0 .504.012.503-.091zm-8.308-6.21s-.331 1.435-.548 2.65c-.121.684-.182 1.459-.182 1.459-.09 1.607-.372 2.286.275 2.286h1.16c.078 0 .133-.225.208-1.553 0 0 .022-.743.182-1.645.18-1.003.352-1.996.352-1.996.499-1.375.397-2.114 2.254-2.114h14.757c2.031 0 1.878.899 2.255 2.114 0 0 .343 1.162.451 2.114.068.605.105 1.436.105 1.436.077 1.705.129 1.583.127 1.644h1.06c.965 0 .639.053.548-2.009 0 0-.117-.949-.274-1.827-.203-1.143-.548-2.559-.548-2.559-.456-1.469-1.546-2.559-2.738-2.559H15.567c-1.146-.047-2.282 1.044-2.739 2.559zM47.006 12c0-.271-1.093-1.383-1.093-1.383H27.325c-1.347 0-2.115 1.092-2.115 2.44v2.684c0 1.347.768 2.44 2.115 2.44h19.681c-.072 0 0-4.518 0-6.181zm-4.351 4.798a2.397 2.397 0 0 1-2.398-2.399 2.398 2.398 0 1 1 2.398 2.399zm-6.182 0A2.4 2.4 0 1 1 36.471 12a2.4 2.4 0 0 1 .002 4.798zm-6.018 0a2.398 2.398 0 1 1-.001-4.797 2.398 2.398 0 0 1 .001 4.797z"/>
    <path fill="url(#a)" d="M51.069 56H4.931A4.93 4.93 0 0 1 0 51.069V4.931A4.93 4.93 0 0 1 4.931 0h46.138A4.931 4.931 0 0 1 56 4.931v46.138A4.931 4.931 0 0 1 51.069 56zM32.362 43.325c0 1.084.88 2.057 1.963 2.057h.274c1.084 0 1.871-.973 1.871-2.057v-1.174c-.001-.101.058-.091-.503-.091H33.14c-.75 0-.778-.029-.778.091v1.174zm-20.721 0c0 1.084.88 2.057 1.963 2.057h.275c1.082 0 1.87-.973 1.87-2.057v-1.248c0-.104.059-.094-.501-.094h-2.83c-.75 0-.777-.027-.777.094v1.248zM8.994 32.253v1.859h2.811a2.7 2.7 0 0 1 2.557-1.828 2.705 2.705 0 0 1 0 5.407 2.704 2.704 0 0 1-2.702-2.705l.001-.034h-.176v-.002H8.994v6.076c.503-.016 26.381.041 30.215 0l.065-6.076h-2.487l-.013.002a2.7 2.7 0 0 1-2.689 2.965 2.7 2.7 0 0 1-2.702-2.702 2.701 2.701 0 0 1 5.168-1.103h2.731l.02-1.859a2.739 2.739 0 0 0-2.731-2.741H11.725a2.737 2.737 0 0 0-2.731 2.741zm12.142-3.84v-1.781c0-1.084-.788-2.055-1.872-2.055h-.274c-1.084 0-1.963.971-1.963 2.055v1.781c0 .122.026.091.777.091h2.829c.56 0 .504.012.503-.091zm-8.308-6.21s-.331 1.435-.548 2.65c-.121.684-.182 1.459-.182 1.459-.09 1.607-.372 2.286.275 2.286h1.16c.078 0 .133-.225.208-1.553 0 0 .022-.743.182-1.645.18-1.003.352-1.996.352-1.996.499-1.375.397-2.114 2.254-2.114h14.757c2.031 0 1.878.899 2.255 2.114 0 0 .343 1.162.451 2.114.068.605.105 1.436.105 1.436.077 1.705.129 1.583.127 1.644h1.06c.965 0 .639.053.548-2.009 0 0-.117-.949-.274-1.827-.203-1.143-.548-2.559-.548-2.559-.456-1.469-1.546-2.559-2.738-2.559H15.567c-1.146-.047-2.282 1.044-2.739 2.559zM47.006 12c0-.271-1.093-1.383-1.093-1.383H27.325c-1.347 0-2.115 1.092-2.115 2.44v2.684c0 1.347.768 2.44 2.115 2.44h19.681c-.072 0 0-4.518 0-6.181zm-4.351 4.798a2.397 2.397 0 0 1-2.398-2.399 2.398 2.398 0 1 1 2.398 2.399zm-6.182 0A2.4 2.4 0 1 1 36.471 12a2.4 2.4 0 0 1 .002 4.798zm-6.018 0a2.398 2.398 0 1 1-.001-4.797 2.398 2.398 0 0 1 .001 4.797z"/>
</svg>
