<?xml version="1.0" standalone="no"?>
<!DOCTYPE svg PUBLIC "-//W3C//DTD SVG 1.1//EN" "http://www.w3.org/Graphics/SVG/1.1/DTD/svg11.dtd" >
<!--
2013-9-30: Created.
-->
<svg>
<metadata>
Created by iconfont
</metadata>
<defs>

<font id="iconfont" horiz-adv-x="1024" >
  <font-face
    font-family="iconfont"
    font-weight="500"
    font-stretch="normal"
    units-per-em="1024"
    ascent="896"
    descent="-128"
  />
    <missing-glyph />
    
    <glyph glyph-name="x" unicode="x" horiz-adv-x="1001"
d="M281 543q-27 -1 -53 -1h-83q-18 0 -36.5 -6t-32.5 -18.5t-23 -32t-9 -45.5v-76h912v41q0 16 -0.5 30t-0.5 18q0 13 -5 29t-17 29.5t-31.5 22.5t-49.5 9h-133v-97h-438v97zM955 310v-52q0 -23 0.5 -52t0.5 -58t-10.5 -47.5t-26 -30t-33 -16t-31.5 -4.5q-14 -1 -29.5 -0.5
t-29.5 0.5h-32l-45 128h-439l-44 -128h-29h-34q-20 0 -45 1q-25 0 -41 9.5t-25.5 23t-13.5 29.5t-4 30v167h911zM163 247q-12 0 -21 -8.5t-9 -21.5t9 -21.5t21 -8.5q13 0 22 8.5t9 21.5t-9 21.5t-22 8.5zM316 123q-8 -26 -14 -48q-5 -19 -10.5 -37t-7.5 -25t-3 -15t1 -14.5
t9.5 -10.5t21.5 -4h37h67h81h80h64h36q23 0 34 12t2 38q-5 13 -9.5 30.5t-9.5 34.5q-5 19 -11 39h-368zM336 498v228q0 11 2.5 23t10 21.5t20.5 15.5t34 6h188q31 0 51.5 -14.5t20.5 -52.5v-227h-327z" />
    

    
    <glyph glyph-name="guanbi1" unicode="&#58931;" d="M555.008 384l299.008 299.008c12.288 12.288 12.288 31.744 0 43.008-12.288 12.288-31.744 12.288-43.008 0L512 427.008 212.992 726.016c-12.288 12.288-31.744 12.288-43.008 0-12.288-12.288-12.288-31.744 0-43.008L468.992 384 169.984 84.992c-12.288-12.288-12.288-31.744 0-43.008 6.144-6.144 14.336-9.216 21.504-9.216s15.36 3.072 21.504 9.216L512 340.992l299.008-299.008c6.144-6.144 14.336-9.216 21.504-9.216s15.36 3.072 21.504 9.216c12.288 12.288 12.288 31.744 0 43.008L555.008 384z"  horiz-adv-x="1024" />

    
    <glyph glyph-name="shanchu" unicode="&#58918;" d="M512-128a512 512 0 1 0 512 512 512 512 0 0 0-512-512z m204.16 620.16a51.2 51.2 0 1 1-72.32 72.32L524.16 444.16 403.84 563.84a51.2 51.2 0 1 1-71.68-71.68l119.68-120.32-119.68-120.32a51.2 51.2 0 1 1 72.32-72.32l119.68 120.32 120.32-120.32a51.2 51.2 0 1 1 72.32 72.32L596.48 371.84z"  horiz-adv-x="1024" />

    
    <glyph glyph-name="xuanze-" unicode="&#58948;" d="M512 896a512 512 0 0 0 512-512 512 512 0 0 0-512-512 512 512 0 0 0-512 512 512 512 0 0 0 512 512zM731.022222 569.457778a56.888889 56.888889 0 1 0 73.386667-87.04l-412.444445-349.297778-207.644444 242.346667a56.888889 56.888889 0 0 0 86.471111 73.955555l133.688889-156.444444z"  horiz-adv-x="1024" />

    
    <glyph glyph-name="neirongqu-fanhui" unicode="&#58938;" d="M647.293146 384.422791L243.104872-19.765483a63.418662 63.418662 0 0 1 89.631709-89.631709l448.158547 448.158546a63.418662 63.418662 0 0 1 0 89.63171L332.736581 877.397192A63.418662 63.418662 0 0 1 243.104872 787.765483z"  horiz-adv-x="1024" />

    
    <glyph glyph-name="dingdanxiangqinggantanhao" unicode="&#58927;" d="M1020 384.5C1020 664.7 792.7 892 512.5 892 232.2 892 5 664.8 5 384.5S232.2-123 512.5-123 1020 104.2 1020 384.5z m-936.9 0c0 237.2 192.2 429.4 429.4 429.4s429.4-192.2 429.4-429.4c-0.1-237.2-192.3-429.4-429.4-429.4-237.2 0-429.4 192.2-429.4 429.4zM512.5 267.4c21.5 0 39 20.6 39 45.9V611.8c-0.1 25.3-17.5 45.9-39 45.9s-39-20.6-39-45.9v-298.5c0-25.3 17.5-45.9 39-45.9zM551.5 150.3c-0.1 21.5-17.5 39-39 39s-39-17.5-39-39 17.5-39 39-39 39 17.4 39 39z"  horiz-adv-x="1024" />

    
    <glyph glyph-name="youwu" unicode="&#58957;" d="M507.52 192a58.24 58.24 0 0 1-40.96-15.36 50.56 50.56 0 0 1-16.64-39.04 57.6 57.6 0 0 1 15.36-40.32 51.2 51.2 0 0 1 39.68-16.64 56.96 56.96 0 0 1 40.96 16 52.48 52.48 0 0 1 16.64 39.68 53.76 53.76 0 0 1-15.36 39.68 53.12 53.12 0 0 1-39.68 16z m86.4 456.32q0 20.48-23.68 38.4a112.64 112.64 0 0 1-64 17.28 111.36 111.36 0 0 1-64-18.56q-26.88-18.56-24.32-37.12l58.24-384h64zM512-128a512 512 0 1 0 512 512 512 512 0 0 0-512-512z"  horiz-adv-x="1024" />

    
    <glyph glyph-name="xinghaoyouwutishi" unicode="&#58965;" d="M512-128a512 512 0 1 0 512 512 512 512 0 0 0-512-512z m0 36.571429A475.428571 475.428571 0 1 1 36.571429 384 475.428571 475.428571 0 0 1 512-91.428571z m8.045714 236.251428a54.125714 54.125714 0 0 0 40.228572-16.091428 55.588571 55.588571 0 0 0 16.091428-40.96 54.125714 54.125714 0 0 0-16.822857-40.96 58.514286 58.514286 0 0 0-41.691428-16.091429 52.662857 52.662857 0 0 0-40.228572 16.822857 59.245714 59.245714 0 0 0-16.822857 43.885714 51.931429 51.931429 0 0 0 16.822857 40.228572 59.245714 59.245714 0 0 0 42.422857 13.165714z m54.857143 474.697143l-36.571428-395.702857h-40.228572l-38.765714 395.702857a48.274286 48.274286 0 0 0 16.091428 38.034286 57.051429 57.051429 0 0 0 84.114286 0 48.274286 48.274286 0 0 0 15.36-38.034286z"  horiz-adv-x="1024" />

    
    <glyph glyph-name="xinghaowenhe" unicode="&#58968;" d="M736.875789 677.726316a55.915789 55.915789 0 0 1-39.612631 16.168421h-358.4A55.781053 55.781053 0 0 1 282.947368 638.517895v-594.728421a55.781053 55.781053 0 0 1 55.91579-55.376842h358.4a55.781053 55.781053 0 0 1 55.915789 55.376842V638.517895a53.894737 53.894737 0 0 1-16.303158 39.208421zM512-128a512 512 0 1 0 512 512 512 512 0 0 0-512-512zM507.688421 94.315789m-35.301053 0a35.301053 35.301053 0 1 1 70.602106 0 35.301053 35.301053 0 1 1-70.602106 0ZM500.008421 311.376842l-79.36 70.602105 21.018947 17.111579 42.172632-31.258947s58.206316 60.496842 114.391579 88.791579l8.08421-9.027369a452.042105 452.042105 0 0 1-106.442105-136.218947z m139.183158 204.39579h-8.757895c-75.587368 0-109.002105 34.896842-109.271579 35.166315l-7.68 8.218948-7.545263-8.353684s-35.435789-37.861053-118.029474-35.031579H377.263158v-157.642106c0-41.364211 13.473684-101.726316 132.581053-148.210526l3.637894-1.482105 3.637895 1.482105c118.837895 46.214737 132.581053 106.576842 132.581053 148.210526V516.176842z"  horiz-adv-x="1024" />

    
    <glyph glyph-name="xinghaowenhetishi" unicode="&#58975;" d="M512-128a512 512 0 1 0 512 512 512 512 0 0 0-512-512z m0 36.571429A475.428571 475.428571 0 1 1 36.571429 384 475.428571 475.428571 0 0 1 512-91.428571zM432.274286 296.96L302.811429 426.422857 225.28 348.891429l168.228571-168.228572 38.765715-38.765714L804.571429 517.12l-73.142858 77.531429z"  horiz-adv-x="1024" />

    
    <glyph glyph-name="xinghaoyouwu" unicode="&#58969;" d="M736.875789 677.726316a55.915789 55.915789 0 0 1-39.612631 16.168421h-358.4A55.781053 55.781053 0 0 1 282.947368 638.517895v-594.728421a55.781053 55.781053 0 0 1 55.91579-55.376842h358.4a55.781053 55.781053 0 0 1 55.915789 55.376842V638.517895a53.894737 53.894737 0 0 1-16.303158 39.208421zM512-128a512 512 0 1 0 512 512 512 512 0 0 0-512-512zM507.688421 94.315789m-35.301053 0a35.301053 35.301053 0 1 1 70.602106 0 35.301053 35.301053 0 1 1-70.602106 0ZM636.227368 502.298947H646.736842v-157.642105c0-41.364211-13.473684-101.726316-131.098947-148.210526L512 195.368421l-3.637895 1.482105C390.736842 242.930526 377.263158 303.157895 377.263158 344.656842V502.703158h10.509474c81.650526-2.829474 116.412632 34.627368 116.816842 35.031579L512 545.684211l7.410526-8.353685s33.28-35.166316 107.789474-35.166315h8.757895z m-125.84421-113.448421l-50.79579 44.193685-17.650526-20.210527 49.448421-42.981052L444.631579 323.503158l18.997895-18.997895L512 352.067368l50.795789-44.193684 17.650527 20.345263-49.583158 42.981053 46.349474 46.349474-19.132632 18.997894z"  horiz-adv-x="1024" />

    
    <glyph glyph-name="Shape" unicode="&#58959;" d="M229.052632 317.889123c-12.35986-9.575298-25.6-23.552-29.444492-41.337263-5.209825-24.288561-1.077895-54.703158 23.228632-78.560562 29.462456-28.923509 74.195088-36.82807 93.525333-38.193403 52.511439-3.664842 108.490105 21.43214 150.67172 50.06821 16.527719 11.264 44.858386 33.845895 71.913543 68.67986-60.649544 30.181053-136.353684 63.595789-217.303579 60.326175-41.337263-1.670737-70.961404-9.934596-92.609122-20.965052z m754.202947-133.964351A509.287298 509.287298 0 0 1 1024 384C1024 666.318596 794.336561 896 512 896S0 666.318596 0 384C0 101.663439 229.663439-128 512-128c170.379228 0 321.50007 83.716491 414.630175 212.129684-87.99214 43.744561-233.022877 115.729965-322.362386 159.294877-42.630737-48.595088-105.633684-97.297965-176.828631-118.496561-44.732632-13.294035-85.045895-18.36014-127.191579-9.754947-41.750456 8.551298-72.488421 28.097123-90.417404 47.678877-9.126175 10.006456-19.617684 22.707649-27.198877 37.834105 0.718596-1.922246 1.203649-3.054035 1.203649-3.054035s-4.365474 7.527298-7.706947 19.49193a85.998035 85.998035 0 0 0-3.341474 18.144561 93.525333 93.525333 0 0 0-0.197614 13.042527 94.046316 94.046316 0 0 0 1.670737 24.072982c4.185825 20.228491 12.826947 43.816421 35.175298 65.697684 49.044211 48.038175 114.777825 50.607158 148.803369 50.409544 50.427509-0.287439 138.042386-22.348351 211.806316-48.433403 20.44407 43.511018 33.558456 90.058105 42.019929 121.083508H305.313684v33.181193h157.516351v66.344421H272.132491V593.830175h190.697544v66.308492c0 9.108211 1.796491 16.599579 16.581614 16.599579h74.608281v-82.908071h207.315088v-33.163228h-207.315088v-66.344421h165.81614s-16.635509-92.824702-68.697824-184.32c115.550316-41.265404 278.114807-104.843228 332.117333-126.077754z"  horiz-adv-x="1024" />

    
    <glyph glyph-name="kefu" unicode="&#58966;" d="M881.344 186.368a87.424 87.424 0 0 0-87.296 87.296V447.488c0 48.128 39.168 87.296 87.296 87.296A142.72 142.72 0 0 0 1024 392.192v-63.168c0-78.656-64-142.656-142.656-142.656z m0 284.416a23.36 23.36 0 0 1-23.296-23.296v-173.824c0-12.864 10.432-23.296 23.296-23.296A78.72 78.72 0 0 1 960 329.024v63.168a78.72 78.72 0 0 1-78.656 78.592zM142.656 186.368C64 186.368 0 250.368 0 329.024v63.168c0 78.656 64 142.656 142.656 142.656 48.128 0 87.296-39.168 87.296-87.296v-173.824c0-48.192-39.168-87.36-87.296-87.36z m0 284.416A78.72 78.72 0 0 1 64 392.192v-63.168a78.72 78.72 0 0 1 78.656-78.656 23.296 23.296 0 0 1 23.296 23.296V447.488a23.36 23.36 0 0 1-23.296 23.296zM197.952 423.424a32 32 0 0 0-32 32v33.6c0 182.08 144 330.24 320.96 330.24h44.032a327.488 327.488 0 0 0 327.104-327.168v-33.6a32 32 0 0 0-64 0v33.6a263.488 263.488 0 0 1-263.104 263.168h-44.096c-141.696 0-256.96-119.424-256.96-266.24v-33.6a31.872 31.872 0 0 0-31.936-32z m404.992-426.688h-10.816a32 32 0 0 0 0 64h10.816c105.344 0 191.104 106.624 191.104 237.696v22.08a32 32 0 0 0 64 0v-22.08c0-166.4-114.432-301.696-255.104-301.696zM546.944 28.736a48 48 0 1 1 96 0 48 48 0 1 1-96 0z"  horiz-adv-x="1024" />

    
    <glyph glyph-name="chenggong" unicode="&#58967;" d="M512-128C229.229714-128 0 101.229714 0 384S229.229714 896 512 896s512-229.229714 512-512-229.229714-512-512-512z m-84.041143 428.056381L298.666667 429.348571l-77.580191-77.58019 168.082286-168.082286 38.765714-38.790095 374.979048 374.979048-77.580191 77.555809-297.374476-297.374476z"  horiz-adv-x="1024" />

    
    <glyph glyph-name="dingdanjindu" unicode="&#58962;" d="M546.0992-128a512 512 0 1 0 0 1024 512 512 0 0 0 0-1024zM726.016 532.992L517.4272 320.512h-18.0224L368.9472 463.7696l-78.848-71.8848L452.3008 214.016H562.176l239.9232 244.4288-76.0832 74.752z"  horiz-adv-x="1126" />

    
    <glyph glyph-name="laba" unicode="&#58963;" d="M789.845333 141.175467a34.133333 34.133333 0 1 0-48.196266 48.264533 326.656 326.656 0 0 1 95.982933 231.765333c0 94.6176-40.277333 182.6816-109.431467 244.5312a34.133333 34.133333 0 1 0 45.4656 50.926934 395.127467 395.127467 0 0 0 132.232534-295.458134c0-106.427733-42.1888-206.301867-116.053334-280.029866z m185.480534-168.618667a34.133333 34.133333 0 0 0-39.185067 55.842133 473.088 473.088 0 0 1 201.728 387.8912 473.019733 473.019733 0 0 1-195.925333 383.7952 34.133333 34.133333 0 0 0 40.072533 55.296 541.2864 541.2864 0 0 0 224.119467-439.0912 541.354667 541.354667 0 0 0-230.741334-443.733333zM542.993067 747.3152L337.442133 554.666667H68.266667v-341.333334h288.221866l186.504534-174.762666V747.3152zM310.4768 622.933333l266.24 249.6512a20.48 20.48 0 0 0 34.542933-14.9504v-929.450666a20.48 20.48 0 0 0-34.474666-14.9504L329.5232 145.066667H20.48a20.48 20.48 0 0 0-20.48 20.48V602.453333A20.48 20.48 0 0 0 20.48 622.933333h289.9968z"  horiz-adv-x="1228" />

    
    <glyph glyph-name="sousuo1" unicode="&#58971;" d="M1004.6-59.8L828.8 130.4c5.8 7.8 11 14.8 16 21.8C917 252 945.2 364 929.4 485.4 894.4 753 631.2 933.6 367.6 872.6 132.2 818.2-24 584.6 16.4 347.4c37-217.6 221.2-378.2 442.4-385.6 68.8-2.2 135 10.6 198.2 38.2 16.4 7.2 30.4 19.2 25.2 37.6C678.8 50 667.4 63 656 69c-7.8 4.2-22.2-1.4-32.6-5.4-65.2-25-131.8-35.6-201.8-27C228 61 54.6 239 86.6 474.8 117.4 702.8 325.2 846.6 552.4 804c166.2-31 303.2-190.4 308.8-359.6 3.6-106.4-27.8-200.4-99-280.6-26.6-30-26.4-42 1.4-71.8l51-54.6 136.2-147.2c9.6-10.4 26.2-11.2 36.6-1.4l15.8 14.6c10.4 9.8 11 26.2 1.4 36.8z"  horiz-adv-x="1024" />

    
    <glyph glyph-name="xingzhuang" unicode="&#58972;" d="M534.144 384l-320-365.696a94.464 94.464 0 0 1 0-121.216c29.312-33.408 76.8-33.408 105.984 0l371.2 424.064A92.16 92.16 0 0 1 713.216 384a92.16 92.16 0 0 1-21.76 62.72L320 870.784a68.608 68.608 0 0 1-105.984 0 94.464 94.464 0 0 1 0-121.216L534.144 384z"  horiz-adv-x="1024" />

    
    <glyph glyph-name="baoqian" unicode="&#58973;" d="M512 896C226.735158 896 0 669.264842 0 384S226.735158-128 512-128 1024 98.735158 1024 384 797.264842 896 512 896z m65.823439-394.976561c0 14.641404 14.641404 36.576561 36.576561 36.576561h51.2c14.623439 0 36.576561-14.623439 36.576561-36.576561v-65.823439c0-14.623439-14.641404-36.576561-36.576561-36.576561H614.4c-14.623439 0-36.576561 14.641404-36.576561 36.576561v65.823439z m-256 0c0 14.641404 14.641404 36.576561 36.576561 36.576561h51.2c14.623439 0 36.576561-14.623439 36.576561-36.576561v-65.823439c0-14.623439-14.641404-36.576561-36.576561-36.576561h-51.2c-14.623439 0-36.576561 14.641404-36.576561 36.576561v65.823439zM694.882807 128c-43.888281 73.135158-102.4 102.4-182.864842 102.4s-138.976561-29.264842-182.864842-102.4H256c36.576561 95.088281 146.288281 168.223439 256 168.223439 109.711719 0 226.735158-87.758596 256-168.223439h-73.135158z"  horiz-adv-x="1024" />

    
    <glyph glyph-name="tishi" unicode="&#58977;" d="M524.434286 82.651429a66.56 66.56 0 0 1 49.737143 19.748571 73.142857 73.142857 0 0 1 0 100.205714 66.56 66.56 0 0 1-49.737143 19.748572 73.142857 73.142857 0 1 1 0-139.702857z m-50.468572 731.428571l8.777143-482.742857h82.651429l8.777143 482.011428zM512-128a512 512 0 1 0 512 512 512 512 0 0 0-512-512z"  horiz-adv-x="1024" />

    
    <glyph glyph-name="zhengque" unicode="&#58978;" d="M442.514286 216.502857L245.76 415.451429l-51.931429-51.2 249.417143-251.611429 387.657143 392.045714-51.931428 51.2zM512-128a512 512 0 1 0 512 512 512 512 0 0 0-512-512z"  horiz-adv-x="1024" />

    
    <glyph glyph-name="dizhi" unicode="&#58881;" d="M518.542507-113.891556a28.672 28.672 0 0 0-24.348445-14.108444 28.785778 28.785778 0 0 0-24.291555 14.108444L193.422507 333.539556A385.080889 385.080889 0 0 0 142.222507 525.937778C142.222507 729.998222 299.975396 896 493.966507 896c193.934222 0 351.744-166.001778 351.744-370.062222a384 384 0 0 0-50.631111-191.203556l-276.536889-448.625778zM200.818062 525.937778c0-55.637333 14.449778-110.08 41.699556-157.468445l251.619555-407.210666 251.790223 408.291555c26.737778 46.478222 41.073778 100.864 41.073777 156.387556 0 168.732444-131.470222 306.062222-293.091555 306.062222S200.874951 694.613333 200.874951 525.880889z m293.091556-174.648889c-91.932444 0-166.684444 78.961778-166.684445 176.071111 0 96.995556 74.752 175.957333 166.684445 175.957333 91.875556 0 166.627556-78.904889 166.627555-175.957333s-74.752-176.071111-166.684444-176.071111z m0 288.028444c-59.619556 0-108.088889-50.232889-108.088889-112.014222 0-61.724444 48.469333-111.957333 108.088889-111.957333 59.562667 0 108.032 50.232889 108.032 111.957333 0 61.781333-48.469333 112.071111-108.088889 112.071111z"  horiz-adv-x="1024" />

    
    <glyph glyph-name="changjianwenti" unicode="&#58884;" d="M122.88 842.752a28.672 28.672 0 0 1-28.672-28.672v-860.16a28.672 28.672 0 0 1 28.672-28.672h746.37312a28.672 28.672 0 0 1 28.672 28.672V814.08a28.672 28.672 0 0 1-28.672 28.672H122.88zM122.88 896h746.37312a81.92 81.92 0 0 0 81.92-81.92v-860.16a81.92 81.92 0 0 0-81.92-81.92H122.88a81.92 81.92 0 0 0-81.92 81.92V814.08a81.92 81.92 0 0 0 81.92 81.92zM211.64032 560.37376h568.89344v-53.248H211.64032zM211.64032 275.90656h568.89344v-53.248H211.64032z"  horiz-adv-x="1024" />

    
    <glyph glyph-name="dizhi2" unicode="&#58885;" d="M518.542507-113.891556a28.672 28.672 0 0 0-24.348445-14.108444 28.785778 28.785778 0 0 0-24.291555 14.108444L193.422507 333.539556A385.080889 385.080889 0 0 0 142.222507 525.937778C142.222507 729.998222 299.975396 896 493.966507 896c193.934222 0 351.744-166.001778 351.744-370.062222a384 384 0 0 0-50.631111-191.203556l-276.536889-448.625778zM200.818062 525.937778c0-55.637333 14.449778-110.08 41.699556-157.468445l251.619555-407.210666 251.790223 408.291555c26.737778 46.478222 41.073778 100.864 41.073777 156.387556 0 168.732444-131.470222 306.062222-293.091555 306.062222S200.874951 694.613333 200.874951 525.880889z m293.091556-174.648889c-91.932444 0-166.684444 78.961778-166.684445 176.071111 0 96.995556 74.752 175.957333 166.684445 175.957333 91.875556 0 166.627556-78.904889 166.627555-175.957333s-74.752-176.071111-166.684444-176.071111z m0 288.028444c-59.619556 0-108.088889-50.232889-108.088889-112.014222 0-61.724444 48.469333-111.957333 108.088889-111.957333 59.562667 0 108.032 50.232889 108.032 111.957333 0 61.781333-48.469333 112.071111-108.088889 112.071111z"  horiz-adv-x="1024" />

    
    <glyph glyph-name="gengduo" unicode="&#58886;" d="M786.887111-49.834667a28.444444 28.444444 0 0 0-37.774222-42.552889l-512 455.111112a28.444444 28.444444 0 0 0 0 42.552888l512 455.111112a28.444444 28.444444 0 0 0 37.774222-42.552889L298.780444 384l488.106667-433.834667z"  horiz-adv-x="1024" />

    
    <glyph glyph-name="gengduo1" unicode="&#58887;" d="M202.279385-5.907692a55.138462 55.138462 0 0 1 68.135384-86.646154l551.384616 433.230769a55.138462 55.138462 0 0 1 0 86.646154l-551.384616 433.230769a55.138462 55.138462 0 0 1-68.135384-86.646154L698.446769 384l-496.246154-389.907692z"  horiz-adv-x="1024" />

    
    <glyph glyph-name="gouxuan" unicode="&#58888;" d="M512-128C229.2224-128 0 101.2224 0 384S229.2224 896 512 896s512-229.2224 512-512-229.2224-512-512-512z m-59.8528 438.1184L322.8672 439.3984l-77.568-77.568 168.0896-168.0896 38.7584-38.8096 374.9888 374.9888-77.568 77.568-297.4208-297.3696z"  horiz-adv-x="1024" />

    
    <glyph glyph-name="dianhua" unicode="&#58889;" d="M751.616-127.36c-65.984 0-151.104 43.904-210.944 80.832-80.128 49.408-166.4 117.76-243.008 192.512l-0.256 0.256-24.32 24.32C198.4 247.36 130.176 333.76 80.768 413.952 43.968 473.792 0 559.04 0 625.088 0 695.68 50.496 770.624 72.192 799.616 89.088 822.272 148.224 896 198.528 896c20.608 0 42.88-13.504 72.064-43.84 25.792-26.88 50.56-60.16 66.88-83.392 21.76-31.232 41.984-63.872 56.832-92.032 24-45.504 26.752-65.024 26.752-75.776 0-21.632-11.264-40.448-33.536-55.808-14.72-10.112-32.32-17.728-49.28-25.088-11.52-4.992-29.824-12.928-36.864-18.56 2.432-10.304 13.12-35.264 41.92-77.632 26.88-39.488 61.632-82.24 92.992-114.56 32.192-31.36 74.88-66.112 114.368-92.992 42.24-28.864 67.2-39.552 77.568-41.984 5.568 7.04 13.504 25.344 18.496 36.864 7.36 17.024 14.976 34.624 25.088 49.28 15.36 22.4 34.112 33.664 55.68 33.664 10.752 0 30.272-2.816 75.776-26.88 28.096-14.784 60.736-35.008 91.904-56.832 23.168-16.256 56.512-41.088 83.264-66.944 30.272-29.248 43.776-51.52 43.776-72.192 0-50.304-73.6-109.504-96.192-126.464-28.928-21.76-103.872-72.256-174.4-72.256z m-411.648 316.48c73.472-71.68 155.968-137.088 232.32-184.192 74.112-45.696 139.456-71.936 179.328-71.936 35.456 0 86.08 21.76 135.296 58.048 21.632 16 41.28 33.664 55.36 49.92 13.248 15.36 18.048 25.344 19.264 29.376-5.12 10.944-35.456 45.312-106.24 94.272-27.84 19.2-56.576 36.8-80.96 49.664-30.592 16.128-43.392 18.88-46.272 19.328a38.848 38.848 0 0 1-9.6-12.032 318.4 318.4 0 0 1-16.384-34.368 289.92 289.92 0 0 0-21.44-43.136c-13.44-20.416-29.824-30.72-48.896-30.72h-1.024c-9.28 0.192-37.504 0.768-114.048 52.992a963.584 963.584 0 0 0-122.816 100.032l-0.512 0.512a964.864 964.864 0 0 0-99.904 122.944c-52.16 76.672-52.8 104.96-52.992 114.176-0.384 19.456 9.856 36.16 30.4 49.856 12.608 8.32 28.288 15.104 43.392 21.632 12.16 5.312 24.768 10.752 34.304 16.448a38.848 38.848 0 0 1 12.096 9.536c-0.512 2.944-3.2 15.68-19.328 46.336-12.8 24.384-30.464 53.12-49.664 81.024C242.816 799.744 208.448 830.08 197.504 835.2c-4.032-1.28-14.016-6.08-29.248-19.328-16.256-14.08-33.984-33.792-49.92-55.424-36.288-49.28-57.984-99.968-57.984-135.488 0-39.872 26.24-105.28 71.808-179.456 47.104-76.48 112.448-159.104 184-232.64l23.808-23.808z"  horiz-adv-x="1024" />

    
    <glyph glyph-name="guanbi" unicode="&#58890;" d="M512.020161 429.266378L937.347414 854.657628a31.99874 31.99874 0 0 0 45.310215-45.310216L557.266379 384.020159l457.38999-457.325993a31.99874 31.99874 0 0 0-45.310215-45.310215L512.020161 338.773941 54.694168-118.616049a31.99874 31.99874 0 0 0-45.310216 45.310215L466.773942 384.020159 41.382692 809.347412a31.99874 31.99874 0 0 0 45.310216 45.310216L512.020161 429.266378z"  horiz-adv-x="1024" />

    
    <glyph glyph-name="yiwen" unicode="&#58891;" d="M518.802286 603.428571c41.325714 0 74.898286-11.922286 100.717714-37.302857 25.819429-24.576 38.765714-58.368 38.765714-100.571428 0-34.377143-8.411429-63.268571-24.576-85.796572-5.778286-7.68-23.844571-25.965714-54.198857-54.857143a115.565714 115.565714 0 0 1-27.136-36.571428 101.302857 101.302857 0 0 1-10.313143-46.372572v-11.995428h-69.12v11.995428c0 25.965714 3.876571 48.493714 12.873143 66.779429 8.411429 19.748571 32.914286 48.566857 72.996572 87.186286l10.971428 13.385143c11.702857 16.164571 18.139429 33.060571 18.139429 51.346285 0 24.649143-6.509714 43.593143-18.797715 57.709715-12.873143 14.043429-31.597714 21.065143-54.857142 21.065142-29.037714 0-50.395429-9.874286-63.268572-30.208-11.702857-16.896-17.481143-40.813714-17.481143-71.753142H365.714286c0 51.346286 13.531429 91.428571 40.667428 120.978285C433.517714 588.653714 471.04 603.428571 518.802286 603.428571z m-11.702857-411.428571c13.604571 0 25.234286-4.242286 34.304-14.043429a48.786286 48.786286 0 0 0 13.531428-35.84c0-14.848-5.12-26.770286-14.189714-36.571428a46.372571 46.372571 0 0 0-67.145143 0.658286 51.126857 51.126857 0 0 0-13.604571 35.84c0 14.774857 4.534857 26.770286 13.604571 35.84a43.739429 43.739429 0 0 0 33.572571 14.116571zM512-91.428571a475.428571 475.428571 0 1 0 0 950.857142 475.428571 475.428571 0 0 0 0-950.857142z m0 73.142857a402.285714 402.285714 0 1 1 0 804.571428 402.285714 402.285714 0 0 1 0-804.571428z"  horiz-adv-x="1024" />

    
    <glyph glyph-name="shijian" unicode="&#58892;" d="M512 896C229.696 896 0 666.304 0 384s229.696-512 512-512 512 229.696 512 512-229.696 512-512 512z m0-938.688A427.136 427.136 0 0 0 85.312 384 427.136 427.136 0 0 0 512 810.688 427.136 427.136 0 0 0 938.688 384 427.136 427.136 0 0 0 512-42.688z m198.336 301.184l-177.024 102.4V640A42.688 42.688 0 0 1 448 640v-298.688c0-15.808 19.648-29.056 32.448-36.416 3.584-5.312 13.312-10.176 19.2-13.568l176-106.688c20.416-11.776 42.496-4.736 54.272 15.616 11.776 20.416 0.832 46.464-19.584 58.24z"  horiz-adv-x="1024" />

    
    <glyph glyph-name="sousuo" unicode="&#58893;" d="M839.708146 119.876062a470.292854 470.292854 0 0 1 109.257371 302.120939c0 261.309345-212.885557 474.002999-474.642678 474.002999C212.949525 896 0 683.306347 0 421.997001s212.885557-474.002999 474.386807-474.002998c68.445777 0 134.588706 14.328836 196.381809 42.538731a36.397801 36.397801 0 1 1-30.448776 66.142928 393.723138 393.723138 0 0 0-165.421289-35.822089h-0.575712c-221.265367 0-401.335332 180.005997-401.335333 401.07946 0 221.201399 180.069965 401.07946 401.399301 401.079461 221.329335 0 401.3993-179.878061 401.3993-401.079461a399.608196 399.608196 0 0 0-111.816092-277.749125 36.333833 36.333833 0 0 1 0.95952-51.558221c1.151424-0.95952 2.558721-1.343328 3.710145-2.302848 1.023488-1.407296 1.5992-3.198401 2.750625-4.54173l188.705647-201.691154c6.716642-7.164418 16.11994-11.578211 26.610695-11.578211h0.127936a36.717641 36.717641 0 0 1 36.653673 36.525737 36.205897 36.205897 0 0 1-9.787107 24.81959l-173.993003 186.018991z"  horiz-adv-x="1024" />

    
    <glyph glyph-name="huishouliucheng" unicode="&#58894;" d="M318.136193 727.285827a26.00959 26.00959 0 0 0 36.249585-7.741436c7.905277-12.287995 4.464638-28.671989-7.659517-36.659186-108.462037-71.393251-171.458491-160.153536-171.458491-279.142288a26.337269 26.337269 0 0 0-26.21439-26.501109 26.337269 26.337269 0 0 0-26.173429 26.501109c0 139.878344 73.400291 243.302303 195.256242 323.54291z m27.033589-796.671681a26.623989 26.623989 0 0 0-10.117116 36.044786 26.05055 26.05055 0 0 0 35.635186 10.239996 402.186079 402.186079 0 0 1 198.20536-51.93726 402.145119 402.145119 0 0 1 194.600883 49.93022 26.05055 26.05055 0 0 0 35.553265-10.608635 26.623989 26.623989 0 0 0-10.485755-35.921906A454.082378 454.082378 0 0 0 568.893212-127.99959c-79.380448 0-155.852738 20.357112-223.68247 58.572776z m678.543089 477.101889a26.460149 26.460149 0 0 0-21.954552-30.187508 26.21439 26.21439 0 0 0-29.859828 22.200312 412.671835 412.671835 0 0 1-181.657527 283.688846 26.664949 26.664949 0 0 0-7.782397 36.659185 26.00959 26.00959 0 0 0 36.249586 7.823357 465.715014 465.715014 0 0 0 205.004718-320.184192zM573.439771 568.320131a163.839934 163.839934 0 1 0 0 327.679869 163.839934 163.839934 0 0 0 0-327.679869z m0 50.2579a113.582035 113.582035 0 1 1 0 227.164069 113.582035 113.582035 0 0 1 0-227.164069zM163.839934-46.079623a163.839934 163.839934 0 1 0 0 327.679869 163.839934 163.839934 0 0 0 0-327.679869z m0 50.2579a113.582035 113.582035 0 1 1 0 227.164069 113.582035 113.582035 0 0 1 0-227.164069zM942.079623-46.079623a163.839934 163.839934 0 1 0 0 327.679869 163.839934 163.839934 0 0 0 0-327.679869z m0 50.2579a113.582035 113.582035 0 1 1 0 227.164069 113.582035 113.582035 0 0 1 0-227.164069z"  horiz-adv-x="1105" />

    
    <glyph glyph-name="dingdanzhongxin" unicode="&#58895;" d="M499.712 333.937778c-146.773333 0-265.936593 123.297185-265.936593 274.394074C233.775407 759.466667 352.862815 882.725926 499.712 882.725926c146.887111 0 265.936593-123.259259 265.936593-274.394074 0-151.172741-119.011556-274.394074-265.936593-274.394074z m0 49.303703c119.277037 0 216.632889 100.769185 216.632889 225.090371 0 124.283259-97.393778 225.09037-216.632889 225.09037-119.239111 0-216.632889-100.807111-216.632889-225.09037 0-124.207407 97.46963-225.09037 216.632889-225.090371z m99.441778-24.007111c181.816889 0 329.272889-152.538074 329.386666-339.816296v-18.697481c0-56.813037-40.049778-89.201778-110.743703-103.61363-48.924444-9.974519-96.786963-11.832889-218.529185-11.832889H418.436741c-125.155556 0-172.714667 1.85837-221.108148 11.870815C127.924148-88.557037 89.125926-56.054519 89.125926 0.720593v18.735407c0 187.20237 147.456 339.77837 329.310815 339.77837h180.717037z m0-49.303703H418.436741c-154.206815 0-280.007111-130.123852-280.007111-290.512593v-18.697481c0-53.399704 61.705481-66.142815 280.007111-66.142815H599.22963c214.660741 0 279.969185 13.274074 279.969185 66.142815v18.697481c-0.075852 160.388741-125.914074 290.512593-280.082963 290.512593z"  horiz-adv-x="1024" />

    
    <glyph glyph-name="gengduo-xiao" unicode="&#58896;" d="M643.229538 377.068308L285.223385 18.983385a56.241231 56.241231 0 0 1 79.556923-79.556923l397.784615 397.784615a56.083692 56.083692 0 0 1 0 79.556923l-397.784615 397.863385a56.241231 56.241231 0 0 1-79.556923-79.556923l358.006153-358.006154z"  horiz-adv-x="1024" />

    
    <glyph glyph-name="xiajiang" unicode="&#58897;" d="M553.695673 853.405859A41.979802 41.979802 0 0 1 512.02304 896a42.286971 42.286971 0 0 1-41.775022-42.594141v-839.903209L224.81976 264.255174a40.955904 40.955904 0 0 1-58.976502 0 43.413259 43.413259 0 0 1 0-60.409959l309.933807-316.79392c7.986401-8.191181 23.856814-15.051295 35.222077-15.051295a57.338266 57.338266 0 0 1 37.269873 15.051295L858.100432 203.947605a43.208479 43.208479 0 0 1 0 60.409959 41.160684 41.160684 0 0 1-58.874112 0l-245.530647-250.854914V853.405859z"  horiz-adv-x="1024" />

    
    <glyph glyph-name="tijiaochenggong" unicode="&#58898;" d="M512-128C229.229714-128 0 101.229714 0 384S229.229714 896 512 896s512-229.229714 512-512-229.229714-512-512-512z m-59.830857 438.101333l-129.292191 129.292191-77.58019-77.580191 168.082286-168.082285 38.765714-38.790096 374.979048 374.979048-77.55581 77.55581L452.169143 310.125714z"  horiz-adv-x="1024" />

    
    <glyph glyph-name="gou" unicode="&#58899;" d="M451.490909 260.840727L163.374545 548.770909 0 385.396364l374.411636-374.411637 86.388364-86.388363 789.876364 789.876363L1077.899636 887.249455z"  horiz-adv-x="1303" />

    
    <glyph glyph-name="shurudianhua" unicode="&#58900;" d="M518.359576 126.921971a54.864813 54.864813 0 0 1 0-109.567942 54.864813 54.864813 0 0 1 0 109.621837zM839.949301 870.830632A86.932165 86.932165 0 0 1 778.509333 895.999461H221.669205C173.75681 895.999461 134.737041 857.41085 134.737041 810.037401v-816.343149c0-47.373449 39.019769-85.96206 86.932164-85.96206h556.840128c47.912396 0 86.932165 38.588611 86.932165 85.96206V810.037401a84.614692 84.614692 0 0 1-25.492197 60.793231zM195.368588 162.708058h609.495258v-169.013806c0-6.898523-2.694735-13.473677-7.760838-18.324201a26.192828 26.192828 0 0 0-18.593675-7.706943H221.669205a26.246723 26.246723 0 0 0-26.354512 26.031144v169.013806z m26.300617 673.360487h556.840128c14.551571 0 26.354512-11.641257 26.354513-26.031144v-582.601799H195.314693V809.983506c0 14.389887 11.856836 26.031144 26.408407 26.031145z"  horiz-adv-x="1024" />

    
    <glyph glyph-name="gerenzhongxin-dengluyanzhengma" unicode="&#58901;" d="M703-17c44.1 0 80 35.5 80 79.1V812.9c0 21.1-8.2 41-23.4 55.9C744.4 883.7 724.3 892 703 892H190.8c-44.1 0-80-35.5-80-79.1V62c0-43.6 35.9-79.1 80-79.1H703z m-536.5 83.9V804.6c0 17.8 10.9 32.3 24.2 32.3H703c13.4 0 24.2-14.5 24.2-32.3v-737.7c0-13.7-11.1-24.8-24.8-24.8H191.3c-13.7 0-24.8 11.1-24.8 24.8zM457.8 123.6a223.1 223.1 0 1 1 446.2 0 223.1 223.1 0 1 1-446.2 0zM680.9-124.3c-66.2 0-128.5 25.8-175.3 72.6S433 57.4 433 123.6c0 66.2 25.8 128.5 72.6 175.3s109.1 72.6 175.3 72.6c66.2 0 128.5-25.8 175.3-72.6s72.6-109.1 72.6-175.3-25.8-128.5-72.6-175.3c-46.8-46.8-109.1-72.6-175.3-72.6z m0 446.2c-109.3 0-198.3-89-198.3-198.3s89-198.3 198.3-198.3 198.3 89 198.3 198.3-88.9 198.3-198.3 198.3zM643.1 22.7c7.2-4.9 16.6-3.8 22.7 3.4L799.4 181c7.3 8.5 7.3 22.2 0 30.7s-19.1 8.5-26.4 0L652.6 72.1 588.9 146c-7.3 8.5-19.1 8.5-26.4 0-7.3-8.5-7.3-22.2 0-30.7 51.3-59.5 76.9-89.2 76.9-89.2 1.1-1.4 2.4-2.5 3.7-3.4z"  horiz-adv-x="1024" />

    
    <glyph glyph-name="fenzu1" unicode="&#58903;" d="M511.906909 34.909091v-46.545455H209.454545A116.363636 116.363636 0 0 0 93.090909 104.727273V756.363636A116.363636 116.363636 0 0 0 209.454545 872.727273h418.909091A116.363636 116.363636 0 0 0 744.727273 756.363636v-407.738181h-46.545455V756.363636A69.818182 69.818182 0 0 1 628.363636 826.181818H209.454545A69.818182 69.818182 0 0 1 139.636364 756.363636v-651.636363A69.818182 69.818182 0 0 1 209.454545 34.909091h302.452364zM698.181818 360.727273a232.727273 232.727273 0 1 0 0-465.454546 232.727273 232.727273 0 0 0 0 465.454546z m0-46.545455a186.181818 186.181818 0 1 1 0-372.363636 186.181818 186.181818 0 0 1 0 372.363636zM814.359273 178.501818l-125.393455-145.454545a15.825455 15.825455 0 0 0-21.317818-3.165091 18.245818 18.245818 0 0 0-3.490909 3.165091l-72.238546 83.735272a22.714182 22.714182 0 0 0 0 28.811637 15.918545 15.918545 0 0 0 24.855273 0l59.764364-69.352727 113.012363 131.025454a15.918545 15.918545 0 0 0 24.808728 0 22.714182 22.714182 0 0 0 0-28.765091z"  horiz-adv-x="1024" />

    
    <glyph glyph-name="hebingxingzhuang" unicode="&#58910;" d="M512-128A512 512 0 1 0 512 896a512 512 0 0 0 0-1024z m54.857143 768a54.857143 54.857143 0 0 1-109.714286 0v-289.938286L633.782857 261.851429a54.857143 54.857143 0 1 1 49.005714 98.157714L566.857143 417.938286V640z"  horiz-adv-x="1024" />

    
    <glyph glyph-name="hebingxingzhuang1" unicode="&#58911;" d="M246.852267 81.92A453.8368 453.8368 0 0 0 68.266667 444.2112C68.266667 693.725867 266.922667 896 512 896s443.733333-202.274133 443.733333-451.7888c0-148.2752-70.178133-279.893333-178.5856-362.2912L512-128l-265.147733 209.92zM512 281.6a170.666667 170.666667 0 1 1 0 341.333333 170.666667 170.666667 0 0 1 0-341.333333z"  horiz-adv-x="1024" />

    
    <glyph glyph-name="hebingxingzhuang2" unicode="&#58912;" d="M546.133333-128V554.666667H477.866667v-682.666667H341.333333V554.666667H273.066667v-682.666667H68.266667V691.2L409.6 861.866667 750.933333 691.2v-279.893333l204.8-61.44v-477.866667H546.133333z"  horiz-adv-x="1024" />

    
    <glyph glyph-name="dui" unicode="&#58914;" d="M512 896a512 512 0 1 0 0-1024A512 512 0 0 0 512 896z m256.398222-412.501333a41.699556 41.699556 0 0 1-58.993778 58.936889l-268.515555-268.515556-142.108445 142.108444a41.699556 41.699556 0 0 1-58.993777-58.993777L411.306667 185.457778a41.699556 41.699556 0 0 1 58.993777 0l298.040889 298.040889z"  horiz-adv-x="1024" />

    
    <glyph glyph-name="qianbao" unicode="&#58916;" d="M1024 895.36H128a128 128 0 0 1-128-127.872v-766.976a128 128 0 0 1 128-127.872h896a128 128 0 0 1 128 127.872V767.488A128 128 0 0 1 1024 895.36z m64-607.232H576A64 64 0 0 0 512 352v63.872a64 64 0 0 0 64 64h512v-191.808zM576 543.808a128 128 0 0 1-128-127.872v-63.872a128 128 0 0 1 128-127.872h512v-223.68a64 64 0 0 0-64-64H128a64 64 0 0 0-64 64V767.488a64 64 0 0 0 64 64h896a64 64 0 0 0 64-64v-223.68H576zM544 384a63.936 63.936 0 0 1 96-55.36 63.936 63.936 0 0 1-32 119.296A64 64 0 0 1 544 384z"  horiz-adv-x="1152" />

    
    <glyph glyph-name="xingzhuang1" unicode="&#58919;" d="M1009.531857-45.893542L818.952721 140.845853a447.905766 447.905766 0 0 1 113.336349 298.475853 449.057689 449.057689 0 0 1-136.502786 322.922203A468.064406 468.064406 0 0 1 466.208531 895.99488a468.00041 468.00041 0 0 1-329.705745-133.750971A449.057689 449.057689 0 0 1 0 439.321706c0-121.975767 48.508726-236.656026 136.566782-322.858207a468.064406 468.064406 0 0 1 329.577753-133.750972 468.960345 468.960345 0 0 1 281.197019 92.345767l192.818985-188.915249c9.599352-9.407365 22.142505-14.07905 34.685659-14.079049a49.468661 49.468661 0 0 1 34.685659 14.079049 47.356803 47.356803 0 0 1 0 67.963413zM98.105378 439.321706c0 198.834579 165.108855 360.551663 368.039157 360.551663 202.930302 0 368.039157-161.717084 368.039158-360.551663 0-198.770583-165.108855-360.487667-367.975162-360.487667-202.994298 0-368.103153 161.717084-368.103153 360.487667z"  horiz-adv-x="1024" />

    
    <glyph glyph-name="dingwei_" unicode="&#58920;" d="M734.813091 146.944C828.322909 215.365818 884.363636 322.56 884.363636 438.784 884.363636 639.627636 717.870545 802.909091 512 802.909091S139.636364 639.674182 139.636364 438.737455c0-116.224 56.040727-223.371636 149.550545-291.793455L512-22.946909l222.813091 169.890909zM93.090909 438.784C93.090909 665.6 280.669091 849.454545 512 849.454545s418.909091-183.854545 418.909091-410.71709c0-134.795636-66.280727-254.464-168.634182-329.355637L512-81.454545l-250.274909 190.836363C159.325091 184.32 93.090909 303.941818 93.090909 438.737455zM512 267.636364a162.909091 162.909091 0 1 0 0 325.818181 162.909091 162.909091 0 0 0 0-325.818181z m0 46.545454a116.363636 116.363636 0 1 1 0 232.727273 116.363636 116.363636 0 0 1 0-232.727273z"  horiz-adv-x="1024" />

    
    <glyph glyph-name="icon-shangmenhuishoupx" unicode="&#58921;" d="M633.8048 153.6h288.256c13.568 0 25.1392 11.6224 25.1392 25.9072V690.8928a25.4976 25.4976 0 0 1-25.088 25.9072H101.888a25.7536 25.7536 0 0 1-25.088-25.9072v-511.3856c0-14.4896 11.3664-25.9072 25.088-25.9072h288.3072L512 31.7952l121.8048 121.8048zM665.6 76.8l-153.6-153.6-153.6 153.6H101.888C45.6704 76.8 0 122.7264 0 179.5072V690.8928C0 747.6224 45.9776 793.6 101.888 793.6h820.224C978.3296 793.6 1024 747.6736 1024 690.8928v-511.3856A102.5536 102.5536 0 0 0 922.112 76.8H665.6zM307.2 435.2m-51.2 0a51.2 51.2 0 1 1 102.4 0 51.2 51.2 0 1 1-102.4 0ZM512 435.2m-51.2 0a51.2 51.2 0 1 1 102.4 0 51.2 51.2 0 1 1-102.4 0ZM716.8 435.2m-51.2 0a51.2 51.2 0 1 1 102.4 0 51.2 51.2 0 1 1-102.4 0Z"  horiz-adv-x="1024" />

    
    <glyph glyph-name="icon-qingdanpx" unicode="&#58923;" d="M844.8 642.2016L682.9568 819.2h-477.696a25.7024 25.7024 0 0 1-26.0608-25.088v-820.224c0-13.6192 11.4688-25.088 25.2928-25.088h615.0144a25.2928 25.2928 0 0 1 25.2928 25.2416V642.2016z m0 0V704h47.5648l29.2352-32V704v-145.8176l-76.8 83.968z m47.5648 61.7984H844.8v-32H921.6v-697.9584c0-56.32-45.824-102.0416-102.0928-102.0416H204.4928A102.2464 102.2464 0 0 0 102.4-26.112V794.112C102.4 850.3296 148.5824 896 205.2608 896H716.8l175.5648-192zM665.6 896v-256h230.4zM307.2 51.2V128h409.6v-76.8z"  horiz-adv-x="1024" />

    
    <glyph glyph-name="xingzhuang2" unicode="&#58924;" d="M512 896A512 512 0 0 1 0 384 512 512 0 0 1 512-128a512.078769 512.078769 0 0 1 0 1024z m0-945.230769a433.230769 433.230769 0 1 0 0 866.461538 433.230769 433.230769 0 1 0 0-866.461538z m0 708.923077c-21.740308 0-39.384615-20.795077-39.384615-46.316308v-301.213538c0-25.521231 17.644308-46.316308 39.384615-46.316308s39.384615 20.795077 39.384615 46.316308V613.376C551.305846 638.897231 533.740308 659.692308 512 659.692308z m0-472.615385a39.384615 39.384615 0 1 1 0.078769-78.848A39.384615 39.384615 0 0 1 512 187.076923z"  horiz-adv-x="1024" />

    
    <glyph glyph-name="xingzhuang3" unicode="&#58925;" d="M751.616-127.36c-65.984 0-151.104 43.904-210.944 80.832-80.128 49.408-166.4 117.76-243.008 192.512l-0.256 0.256-24.32 24.32C198.4 247.36 130.176 333.76 80.768 413.952 43.968 473.792 0 559.04 0 625.088 0 695.68 50.496 770.624 72.192 799.616 89.088 822.272 148.224 896 198.528 896c20.608 0 42.88-13.504 72.064-43.84 25.792-26.88 50.56-60.16 66.88-83.392 21.76-31.232 41.984-63.872 56.832-92.032 24-45.504 26.752-65.024 26.752-75.776 0-21.632-11.264-40.448-33.536-55.808-14.72-10.112-32.32-17.728-49.28-25.088-11.52-4.992-29.824-12.928-36.864-18.56 2.432-10.304 13.12-35.264 41.92-77.632 26.88-39.488 61.632-82.24 92.992-114.56 32.192-31.36 74.88-66.112 114.368-92.992 42.24-28.864 67.2-39.552 77.568-41.984 5.568 7.04 13.504 25.344 18.496 36.864 7.36 17.024 14.976 34.624 25.088 49.28 15.36 22.4 34.112 33.664 55.68 33.664 10.752 0 30.272-2.816 75.776-26.88 28.096-14.784 60.736-35.008 91.904-56.832 23.168-16.256 56.512-41.088 83.264-66.944 30.272-29.248 43.776-51.52 43.776-72.192 0-50.304-73.6-109.504-96.192-126.464-28.928-21.76-103.872-72.256-174.4-72.256z m-411.648 316.48c73.472-71.68 155.968-137.088 232.32-184.192 74.112-45.696 139.456-71.936 179.328-71.936 35.456 0 86.08 21.76 135.296 58.048 21.632 16 41.28 33.664 55.36 49.92 13.248 15.36 18.048 25.344 19.264 29.376-5.12 10.944-35.456 45.312-106.24 94.272-27.84 19.2-56.576 36.8-80.96 49.664-30.592 16.128-43.392 18.88-46.272 19.328a38.848 38.848 0 0 1-9.6-12.032 318.4 318.4 0 0 1-16.384-34.368 289.92 289.92 0 0 0-21.44-43.136c-13.44-20.416-29.824-30.72-48.896-30.72h-1.024c-9.28 0.192-37.504 0.768-114.048 52.992a963.584 963.584 0 0 0-122.816 100.032l-0.512 0.512a964.864 964.864 0 0 0-99.904 122.944c-52.16 76.672-52.8 104.96-52.992 114.176-0.384 19.456 9.856 36.16 30.4 49.856 12.608 8.32 28.288 15.104 43.392 21.632 12.16 5.312 24.768 10.752 34.304 16.448a38.848 38.848 0 0 1 12.096 9.536c-0.512 2.944-3.2 15.68-19.328 46.336-12.8 24.384-30.464 53.12-49.664 81.024C242.816 799.744 208.448 830.08 197.504 835.2c-4.032-1.28-14.016-6.08-29.248-19.328-16.256-14.08-33.984-33.792-49.92-55.424-36.288-49.28-57.984-99.968-57.984-135.488 0-39.872 26.24-105.28 71.808-179.456 47.104-76.48 112.448-159.104 184-232.64l23.808-23.808z"  horiz-adv-x="1024" />

    
    <glyph glyph-name="jiajiaquan" unicode="&#58902;" d="M947.2 545.8944a179.3536 179.3536 0 0 1-102.4-161.8944c0-71.3728 41.8816-133.12 102.4-161.8944v-145.6128a25.088 25.088 0 0 0-25.4976-25.2928H102.1952a25.3952 25.3952 0 0 0-25.3952 25.2928v145.6128A179.3024 179.3024 0 0 1 179.2 384c0 71.3216-41.8816 133.12-102.4 161.8944V691.5072a25.6 25.6 0 0 0 25.1392 25.2928h820.1216c13.824 0 25.1392-11.3664 25.1392-25.2928v-145.6128zM1024 486.4V691.5072A102.0928 102.0928 0 0 1 922.0608 793.6H101.9392A102.2464 102.2464 0 0 1 0 691.5072V486.4a102.4 102.4 0 0 0 0-204.8v-205.1072C0 20.1728 45.7728-25.6 102.1952-25.6h819.456c56.832 0 102.3488 45.7216 102.3488 102.0928V281.6a102.4 102.4 0 1 0 0 204.8zM307.2 179.2h76.8V588.8H307.2z"  horiz-adv-x="1024" />

    
    <glyph glyph-name="gerenzhongxin" unicode="&#58904;" d="M502.528 454.9632c94.976 0 173.3632 81.1008 173.3632 182.1184 0 100.9152-78.4384 182.1184-173.3632 182.1184S329.216 737.9968 329.216 637.0816c0-100.864 78.5408-182.1184 173.3632-182.1184z m0-76.8c-137.8304 0-250.1632 116.1728-250.1632 258.9184C252.416 779.776 364.544 896 502.528 896c137.984 0 250.1632-116.224 250.1632-258.9184 0-142.848-112.128-258.9184-250.1632-258.9184z m103.1168-101.7344h-187.392c-131.1744 0-239.0528-111.616-239.0528-249.9072v-19.456c0-6.4512 52.48-17.3056 239.104-17.3056h187.392c182.3744 0 239.104 11.5712 239.104 17.3568v19.3536c-0.1024 138.3936-107.9808 249.9584-239.1552 249.9584z m0 76.8c174.2336 0 315.8528-146.5856 315.9552-326.7072v-19.456c0-94.1056-146.3296-94.1056-315.904-94.1056H418.304c-176.4864 0-315.904 0-315.904 94.1568v19.4048c0 180.1216 141.6192 326.7072 315.904 326.7072h187.3408z"  horiz-adv-x="1024" />

    
    <glyph glyph-name="changjianwenti1" unicode="&#58905;" d="M153.6 819.2a25.6 25.6 0 0 1-25.6-25.6v-819.2a25.6 25.6 0 0 1 25.6-25.6h705.4336a25.6 25.6 0 0 1 25.6 25.6V793.6a25.6 25.6 0 0 1-25.6 25.6H153.6zM153.6 896h705.4336a102.4 102.4 0 0 0 102.4-102.4v-819.2a102.4 102.4 0 0 0-102.4-102.4H153.6a102.4 102.4 0 0 0-102.4 102.4V793.6a102.4 102.4 0 0 0 102.4 102.4zM221.8496 560.3328m38.4 0l492.0832 0q38.4 0 38.4-38.4l0 0q0-38.4-38.4-38.4l-492.0832 0q-38.4 0-38.4 38.4l0 0q0 38.4 38.4 38.4ZM221.8496 275.9168m38.4 0l492.0832 0q38.4 0 38.4-38.4l0 0q0-38.4-38.4-38.4l-492.0832 0q-38.4 0-38.4 38.4l0 0q0 38.4 38.4 38.4Z"  horiz-adv-x="1024" />

    
    <glyph glyph-name="huishouliucheng1" unicode="&#58906;" d="M262.784 767.488a38.4 38.4 0 0 0 41.8816-64.3584C203.2896 637.0816 145.0752 555.9808 145.0752 447.488a38.4 38.4 0 0 0-76.8 0c0 138.752 73.472 241.152 194.5088 319.9488z m30.0032-833.1776a38.4 38.4 0 1 0 37.376 67.072c56.1152-31.232 119.296-47.9232 184.9856-47.9232a378.624 378.624 0 0 1 181.6576 46.08 38.4 38.4 0 1 0 36.7104-67.4304 455.424 455.424 0 0 0-218.368-55.4496 455.3728 455.3728 0 0 0-222.3616 57.6512zM964.1216 453.3248a38.4 38.4 0 0 0-75.9296-11.5712 380.5696 380.5696 0 0 1-169.5744 261.8368 38.4 38.4 0 1 0 41.728 64.512 457.3696 457.3696 0 0 0 203.776-314.7776zM512.0256 693.504A62.8224 62.8224 0 1 1 512.0256 819.2a62.8224 62.8224 0 0 1 0-125.696z m0-76.8A139.6224 139.6224 0 1 0 512.0256 896a139.6224 139.6224 0 0 0 0-279.296zM139.648 134.9632a62.8224 62.8224 0 1 1 0 125.696 62.8224 62.8224 0 0 1 0-125.696z m0-76.8a139.6224 139.6224 0 1 0 0 279.296 139.6224 139.6224 0 0 0 0-279.296zM884.4032 134.9632a62.8224 62.8224 0 1 1 0 125.696 62.8224 62.8224 0 0 1 0-125.696z m0-76.8a139.6224 139.6224 0 1 0 0 279.296 139.6224 139.6224 0 0 0 0-279.296z"  horiz-adv-x="1024" />

    
    <glyph glyph-name="guanbi2" unicode="&#58907;" d="M186.163718 58.17794c179.934557-179.963001 471.709564-179.963001 651.644121 0 179.963001 179.934557 179.963001 471.709564 0 651.64412-179.934557 179.963001-471.709564 179.963001-651.644121 0-179.963001-179.934557-179.963001-471.709564 0-651.64412z m-36.208772-36.208772c-199.95889 199.95889-199.95889 524.102775 0 724.061664 199.95889 199.95889 524.102775 199.95889 724.061665 0 199.95889-199.95889 199.95889-524.102775 0-724.061664-199.95889-199.95889-524.102775-199.95889-724.061665 0zM292.770534 567.034916a25.599289 25.599289 0 1 0 36.180328 36.180328l422.388267-422.359823a25.599289 25.599289 0 1 0-36.208772-36.208772l-422.388267 422.388267zM308.841199 144.646649a25.599289 25.599289 0 1 0-36.208772 36.208772l422.388267 422.388267a25.599289 25.599289 0 1 0 36.180328-36.208772l-422.359823-422.388267z"  horiz-adv-x="1024" />

    
    <glyph glyph-name="wenhao" unicode="&#58908;" d="M512 218.709333c19.370667 0 38.656-7.936 52.309333-21.674666 13.738667-13.653333 21.674667-32.938667 21.674667-52.309334a75.093333 75.093333 0 0 0-21.674667-52.309333 74.922667 74.922667 0 0 0-52.309333-21.674667 74.837333 74.837333 0 0 0-52.309333 21.674667 74.837333 74.837333 0 0 0-21.674667 52.309333c0 19.370667 7.936 38.656 21.674667 52.309334A74.922667 74.922667 0 0 0 512 218.709333z m-1.706667 464.384c52.309333 0 93.866667-15.445333 124.757334-46.336 30.890667-30.890667 46.250667-66.816 46.250666-107.776 0-22.613333-5.632-44.117333-16.896-64.341333-11.349333-20.224-35.584-47.786667-72.533333-82.688-19.2-17.92-31.146667-32.426667-35.754667-43.52-4.608-10.922667-6.826667-30.549333-6.314666-58.88h-82.602667a2073.6 2073.6 0 0 0-0.341333 24.490667c0 30.293333 4.522667 55.125333 13.312 74.666666 8.789333 19.456 26.538667 41.386667 53.077333 65.792 26.453333 24.405333 42.410667 40.362667 47.530667 47.957334a69.973333 69.973333 0 0 1 11.946666 39.509333 70.229333 70.229333 0 0 1-21.248 51.2c-14.08 14.336-33.28 21.418667-57.173333 21.418667a80.981333 80.981333 0 0 1-58.026667-22.186667c-15.616-14.848-29.013333-47.616-32.170666-67.84-2.986667-19.114667-84.48-27.136-83.456 11.605333 1.024 38.656 18.773333 80.725333 49.408 111.189334 30.549333 30.464 70.656 45.738667 120.32 45.738666zM512 896C229.802667 896 0 666.368 0 384c0-282.453333 229.717333-512 512-512s512 229.546667 512 512c0 282.368-229.632 512-512 512z m-0.341333-958.890667A448 448 0 0 0 64.085333 384.512 448 448 0 0 0 511.658667 832.085333a448 448 0 0 0 447.658666-447.573333 448 448 0 0 0-447.658666-447.402667z"  horiz-adv-x="1024" />

    
    <glyph glyph-name="quanshuoming" unicode="&#58909;" d="M643.84 576.682667a93.610667 93.610667 0 0 0-62.72-21.76c-24.490667 0-45.568 7.082667-63.317333 21.76a65.28 65.28 0 0 0-26.282667 52.48c0 20.48 8.789333 37.973333 26.282667 52.565333 17.749333 14.677333 38.826667 22.272 63.317333 22.272 24.405333 0 45.482667-7.594667 62.72-22.186667 17.493333-14.762667 26.282667-32.256 26.282667-52.650666 0-20.821333-8.789333-38.314667-26.282667-52.48z m6.741333-480c-30.122667-10.410667-53.76-18.432-71.850666-24.149334-17.749333-5.717333-38.570667-8.533333-62.293334-8.533333-36.266667 0-64.512 8.021333-84.650666 23.722667a73.642667 73.642667 0 0 0-30.293334 60.586666c0 9.386667 0.768 18.858667 2.218667 28.842667 1.621333 9.898667 4.181333 21.333333 7.253333 33.621333l37.546667 118.784c3.413333 11.349333 1.450667 21.76 3.84 32.170667 2.304 9.984 3.328 19.370667 3.328 27.477333 0 15.616 1.365333 26.026667-5.546667 31.744-7.253333 6.144-20.309333 4.352-40.106666 4.352-9.813333 0-19.882667-1.365333-29.866667-3.754666-10.325333-2.901333-19.029333-0.597333-26.282667-3.413334l10.069334 36.864c24.405333 8.96 48.042667 16.554667 70.485333 22.698667 22.357333 6.656 43.690667 9.472 63.573333 9.472 36.266667 0 64-7.594667 83.626667-23.210667 19.626667-15.616 41.130667-35.925333 41.130667-60.586666 0-5.12-0.768-14.165333-2.048-27.477334a164.693333 164.693333 0 0 0-7.424-35.498666l-49.493334-118.272c-2.816-9.472-5.632-20.394667-7.936-32.682667-2.56-11.861333-3.84-21.333333-3.84-27.477333 0-15.616 4.096-26.453333 11.861334-32.170667 7.936-5.632 21.589333-8.533333 40.874666-8.533333 8.96 0 19.285333 1.450667 30.890667 4.266666 11.52 2.816 19.797333 5.205333 24.917333 7.594667l-9.984-36.437333zM512 896a512 512 0 1 1 0-1024A512 512 0 0 1 512 896z"  horiz-adv-x="1024" />

    
    <glyph glyph-name="chengjiaonaqian" unicode="&#58913;" d="M963.089342 422.265013h-28.792937v143.964684c0 70.382734-54.386658 127.968608-118.370962 127.968607h-12.79686L710.351342 863.75671c-15.996076 31.992152-54.386658 41.589798-83.179595 22.394506l-127.968608-79.98038L441.617266 866.955925C422.421975 895.748862 384.031392 895.748862 361.636886 870.15514L198.476911 694.198304H118.496531c-67.183519 0-118.370962-57.585873-118.370962-127.968607V-0.031392c0-70.382734 54.386658-127.968608 118.370962-127.968608h694.229697c67.183519 0 118.370962 57.585873 118.370962 127.968608v115.171747h28.792937c31.992152 0 60.785089 28.792937 60.785089 63.984303v175.956836c3.199215 35.191367-22.394506 67.183519-57.585874 67.183519z m15.996076-243.140355c0-9.597646-6.39843-15.996076-15.996076-15.996075H486.406278c-9.597646 0-15.996076 6.39843-15.996076 15.996075v175.956836c0 9.597646 6.39843 15.996076 15.996076 15.996076h476.683064c9.597646 0 15.996076-6.39843 15.996076-15.996076v-175.956836zM534.394506 770.979469l118.370962 73.58195c6.39843 3.199215 15.996076 3.199215 19.195292-6.398431l76.781164-143.964684H412.824329l83.179595 51.187444 38.390582 25.593721z m-140.765468 63.984304c6.39843 6.39843 15.996076 6.39843 22.394506 0l47.988228-51.187443L320.047088 694.198304H262.461215l131.167823 140.765469z m495.878355-767.811646V-0.031392c0-44.789013-35.191367-79.98038-73.58195-79.98038H118.496531c-41.589798 0-73.581949 35.191367-73.581949 79.98038V566.229697c0 44.789013 35.191367 79.98038 73.581949 79.98038H825.523089c35.191367-6.39843 60.785089-38.390582 60.785089-79.98038v-143.964684H483.207063c-19.195291 0-35.191367-9.597646-44.789012-22.394506-9.597646-12.796861-15.996076-25.593722-15.996076-41.589798V179.124658c0-35.191367 25.593722-63.984304 60.785088-63.984303h403.101115v-47.988228zM604.777241 268.702684m-60.785089 0a60.785089 60.785089 0 1 1 121.570177 0 60.785089 60.785089 0 1 1-121.570177 0Z"  horiz-adv-x="1024" />

    
    <glyph glyph-name="zaixianxiadan" unicode="&#58915;" d="M796.8 892.8H224c-54.4 0-96-41.6-96-96v-825.6c0-54.4 41.6-96 96-96h572.8c54.4 0 96 41.6 96 96V796.8c0 51.2-44.8 96-96 96z m48-921.6c0-25.6-22.4-48-48-48H224c-25.6 0-48 22.4-48 48V796.8c0 25.6 22.4 48 48 48h572.8c25.6 0 48-22.4 48-48v-825.6zM547.2 796.8h-73.6c-12.8 0-22.4-9.6-22.4-22.4s9.6-22.4 22.4-22.4h73.6c12.8 0 22.4 9.6 22.4 22.4s-9.6 22.4-22.4 22.4zM451.2 32a57.6 57.6 0 1 1 115.2 0 57.6 57.6 0 1 1-115.2 0ZM480 307.2c-6.4 0-12.8 3.2-16 6.4L326.4 448c-9.6 9.6-9.6 25.6 0 35.2 9.6 9.6 25.6 9.6 35.2 0l121.6-118.4 224 217.6c9.6 9.6 25.6 9.6 35.2 0 9.6-9.6 9.6-25.6 0-35.2l-240-233.6c-9.6-3.2-16-6.4-22.4-6.4z"  horiz-adv-x="1024" />

    
    <glyph glyph-name="zhuanyeyanji" unicode="&#58917;" d="M796.8 326.4V723.2L617.6 896H57.6C25.6 896 0 870.4 0 841.6v-912c0-28.8 25.6-54.4 57.6-54.4h684.8c32 0 57.6 25.6 57.6 54.4v281.6l176 172.8-57.6 57.6-121.6-115.2zM713.6 736h-76.8V809.6L713.6 736z m35.2-806.4c0-3.2-3.2-6.4-9.6-6.4H57.6c-6.4 0-9.6 3.2-9.6 6.4V841.6c0 3.2 3.2 6.4 9.6 6.4h531.2v-160h160v-409.6l-70.4-70.4-16-76.8 76.8 19.2 12.8 12.8v-233.6zM1011.2 444.8l-38.4 38.4s-9.6 9.6-19.2 0l-28.8-28.8 57.6-57.6 28.8 28.8c9.6 9.6 0 19.2 0 19.2zM556.8 259.2H156.8c-12.8 0-25.6-9.6-25.6-25.6s9.6-25.6 25.6-25.6h400c12.8 0 25.6 9.6 25.6 25.6s-12.8 25.6-25.6 25.6zM675.2 579.2c0 12.8-9.6 25.6-25.6 25.6H156.8c-12.8 0-25.6-9.6-25.6-25.6s9.6-25.6 25.6-25.6h496c12.8 0 22.4 9.6 22.4 25.6zM601.6 448H156.8c-12.8 0-25.6-9.6-25.6-25.6s9.6-25.6 25.6-25.6h444.8c12.8 0 25.6 9.6 25.6 25.6s-12.8 25.6-25.6 25.6z"  horiz-adv-x="1024" />

    
    <glyph glyph-name="shebeigujia" unicode="&#58922;" d="M1008 73.6l-150.4 99.2c16 32 25.6 67.2 25.6 102.4 0 92.8-57.6 172.8-137.6 208V793.6c0 54.4-41.6 96-92.8 96H99.2C48 889.6 6.4 848 6.4 793.6V-32c0-54.4 41.6-96 92.8-96h553.6c51.2 0 92.8 41.6 92.8 96v99.2c35.2 12.8 64 35.2 86.4 64l150.4-99.2c9.6-6.4 25.6-3.2 32 6.4 9.6 12.8 6.4 25.6-6.4 35.2zM700.8-32c0-25.6-22.4-48-48-48H99.2c-25.6 0-48 22.4-48 48V793.6c0 25.6 22.4 48 48 48h553.6c25.6 0 48-22.4 48-48v-297.6c-12.8 3.2-25.6 3.2-38.4 3.2-121.6 0-224-99.2-224-224 0-9.6 0-19.2 3.2-28.8 9.6-86.4 70.4-156.8 147.2-182.4 22.4-6.4 48-12.8 73.6-12.8 12.8 0 25.6 0 38.4 3.2V-32z m44.8 153.6c-12.8-6.4-28.8-12.8-48-19.2-12.8-3.2-25.6-3.2-38.4-3.2-25.6 0-51.2 6.4-73.6 16-51.2 22.4-92.8 73.6-102.4 131.2 0 9.6-3.2 19.2-3.2 28.8 0 96 80 176 176 176 12.8 0 25.6-3.2 38.4-3.2 16-3.2 32-9.6 48-19.2 54.4-28.8 89.6-86.4 89.6-153.6 3.2-67.2-32-124.8-86.4-153.6zM339.2 752h73.6c12.8 0 19.2 9.6 19.2 22.4s-9.6 22.4-19.2 22.4h-73.6c-12.8 0-19.2-9.6-19.2-22.4s6.4-22.4 19.2-22.4M374.4 86.4c-32 0-57.6-25.6-57.6-57.6s25.6-57.6 57.6-57.6 57.6 25.6 57.6 57.6-25.6 57.6-57.6 57.6"  horiz-adv-x="1024" />

    
    <glyph glyph-name="alipay" unicode="&#58926;" d="M845.824 236.288c-40.2944 13.824-94.4128 34.816-154.7264 57.088a839.168 839.168 0 0 1 84.1216 216.6784H576.512V583.0144h243.456v40.7552H576.512V745.472H477.184c-17.4592 0-17.4592-17.5616-17.4592-17.5616v-104.0896h-246.272v-40.7552h246.272v-72.96H256.4096v-40.7552h394.24a723.968 723.968 0 0 0-56.7808-141.4144c-127.8976 43.008-264.448 77.9264-350.208 56.4224-54.784-13.824-90.112-38.4-110.8992-64.1024-95.232-118.1696-26.9312-297.6256 174.2336-297.6256 118.8864 0 233.472 67.584 322.304 178.9952 124.3136-60.928 363.008-162.816 391.8336-175.104A186.112 186.112 0 0 0 837.8368-128H186.1632A186.1632 186.1632 0 0 0 0 58.1632V709.8368A186.1632 186.1632 0 0 0 186.1632 896h651.6736A186.1632 186.1632 0 0 0 1024 709.8368v-525.7728s-32.9728 2.6624-178.176 52.224z m-585.0112 87.04c93.184 9.4208 179.456-26.7776 281.1904-77.4656-71.5264-95.1296-162.6624-154.624-253.7984-154.624-156.8768 0.0512-203.264 126.0032-125.7472 194.9184 25.856 23.296 73.1648 34.6624 98.3552 37.2224z"  horiz-adv-x="1024" />

    
    <glyph glyph-name="vouchers" unicode="&#58928;" d="M153.6 896h716.8a153.6 153.6 0 0 0 153.6-153.6v-716.8a153.6 153.6 0 0 0-153.6-153.6H153.6a153.6 153.6 0 0 0-153.6 153.6V742.4a153.6 153.6 0 0 0 153.6 153.6z m285.696-919.552c19.968 0 39.0144 7.68 53.4528 21.8112l405.2992 397.1072c14.592 14.336 22.784 33.536 22.9376 53.9648 0.3072 20.48-7.5264 39.7824-21.7088 54.1184l-62.1056 64.1536a29.2352 29.2352 0 0 1-20.5824 8.96 32.9216 32.9216 0 0 1-20.7872-8.3456c-26.112-25.4976-71.0656-24.9856-96.5632 1.1264a68.096 68.096 0 0 0 1.28 96.4096 29.2864 29.2864 0 0 1 0.6144 41.3184l-62.2592 64.2048c-28.4672 29.2352-78.848 29.8496-108.2368 1.2288l-405.0944-396.9536c-14.6432-14.336-22.9888-33.4848-23.1424-53.9136-0.3072-20.48 7.5776-39.7824 21.7088-54.272l62.1056-64c5.376-5.632 12.9024-8.8064 20.6336-8.96a30.9248 30.9248 0 0 1 20.736 8.3456c25.9584 25.2928 70.9632 24.832 96.4096-1.28a67.9936 67.9936 0 0 0-1.0752-96.4096 29.2864 29.2864 0 0 1-0.6656-41.3696l62.3104-64.1536c14.4384-14.9504 33.9456-23.1424 54.7328-23.1424z m-69.5296 341.7088a29.0304 29.0304 0 0 0-20.736 8.704 29.184 29.184 0 0 0 0 41.3184l163.3792 163.3792a29.184 29.184 0 0 0 41.3696 0 29.184 29.184 0 0 0 0-41.3184L390.5536 326.656a29.5424 29.5424 0 0 0-20.7872-8.4992z m87.4496-87.4496a29.0304 29.0304 0 0 0-20.7872 8.704 29.184 29.184 0 0 0 0 41.3184l163.4304 163.2256a29.184 29.184 0 0 0 41.3696 0 29.184 29.184 0 0 0 0-41.3184l-163.4304-163.4304a29.184 29.184 0 0 0-20.5824-8.4992z"  horiz-adv-x="1024" />

    
    <glyph glyph-name="choosen" unicode="&#58929;" d="M512-128C229.2224-128 0 101.2224 0 384S229.2224 896 512 896s512-229.2224 512-512-229.2224-512-512-512z m-78.1312 414.72L304.5376 415.9488l-77.568-77.6192 168.0896-168.0896 38.8096-38.7584 374.9376 374.9376-77.568 77.6192-297.3696-297.4208z"  horiz-adv-x="1024" />

    
    <glyph glyph-name="choose-coupon" unicode="&#58930;" d="M0 896h1024v-1024L0 896z m662.491429-375.222857l-96.987429 96.987428L512 564.260571l126.061714-126.061714 29.110857-29.110857 258.56 258.596571-58.148571 58.185143-205.092571-205.092571z"  horiz-adv-x="1024" />

    


  </font>
</defs>
</svg>
